<?xml version="1.0" encoding="utf-8" ?>
<svg baseProfile="full" height="100%" preserveAspectRatio="xMidYMid meet" version="1.1" viewBox="0, 0, 452.0, 452.0" width="100%" xmlns="http://www.w3.org/2000/svg" xmlns:ev="http://www.w3.org/2001/xml-events" xmlns:xlink="http://www.w3.org/1999/xlink">
  <defs/>
  <g id="precursor" transform="translate(0, 10) scale(0.95, 0.95)">
    <g id="pairs" stroke="black" stroke-width="0.7306881914647788">
      <line x1="220.56599" x2="230.36489" y1="15.24664" y2="15.24664"/>
      <line x1="220.56599" x2="230.36489" y1="25.04554" y2="25.04554"/>
      <line x1="220.56599" x2="230.36489" y1="34.84444" y2="34.84444"/>
      <line x1="220.56599" x2="230.36489" y1="44.64334" y2="44.64334"/>
      <line x1="220.56599" x2="230.36489" y1="61.97237" y2="61.97237"/>
      <line x1="220.56599" x2="230.36489" y1="71.77127" y2="71.77127"/>
      <line x1="220.56599" x2="230.36489" y1="81.57017" y2="81.57017"/>
      <line x1="220.56599" x2="230.36489" y1="91.36907" y2="91.36907"/>
      <line x1="220.56599" x2="230.36489" y1="101.16797" y2="101.16797"/>
      <line x1="220.56599" x2="230.36489" y1="110.96687" y2="110.96687"/>
      <line x1="220.56599" x2="230.36489" y1="126.91098" y2="126.91098"/>
      <line x1="220.56599" x2="230.36489" y1="136.70988" y2="136.70988"/>
      <line x1="220.56599" x2="230.36489" y1="146.50878" y2="146.50878"/>
      <line x1="220.56599" x2="230.36489" y1="156.30768" y2="156.30768"/>
      <line x1="220.56599" x2="230.36489" y1="166.10658" y2="166.10658"/>
      <line x1="220.56599" x2="230.36489" y1="175.90548" y2="175.90548"/>
      <line x1="220.56599" x2="230.36489" y1="185.70438" y2="185.70438"/>
      <line x1="220.56599" x2="230.36489" y1="195.50328" y2="195.50328"/>
      <line x1="220.56599" x2="230.36489" y1="205.30218" y2="205.30218"/>
      <line x1="220.56599" x2="230.36489" y1="215.10108" y2="215.10108"/>
      <line x1="220.56599" x2="230.36489" y1="224.89998" y2="224.89998"/>
      <line x1="220.69664" x2="230.49227" y1="234.95235" y2="234.69823"/>
      <line x1="220.95076" x2="230.74639" y1="244.74798" y2="244.49386"/>
      <line x1="221.20553" x2="231.00116" y1="254.54361" y2="254.2895"/>
      <line x1="221.45965" x2="231.25528" y1="264.33925" y2="264.08513"/>
      <line x1="221.71377" x2="231.5094" y1="274.13488" y2="273.88076"/>
      <line x1="221.96854" x2="231.76417" y1="283.93052" y2="283.6764"/>
      <line x1="222.22266" x2="232.01829" y1="293.72615" y2="293.47203"/>
      <line x1="222.47743" x2="232.27306" y1="303.52178" y2="303.26767"/>
      <line x1="222.73154" x2="232.52718" y1="313.31742" y2="313.0633"/>
      <line x1="222.98566" x2="232.7813" y1="323.11305" y2="322.85828"/>
      <line x1="226.94377" x2="235.45052" y1="337.26854" y2="332.40567"/>
      <line x1="231.80598" x2="240.31338" y1="345.77595" y2="340.91308"/>
      <line x1="236.66885" x2="245.17625" y1="354.2827" y2="349.42048"/>
      <line x1="241.53171" x2="250.03912" y1="362.7901" y2="357.92724"/>
      <line x1="246.39458" x2="254.90133" y1="371.29751" y2="366.43464"/>
      <line x1="251.2568" x2="259.7642" y1="379.80426" y2="374.94205"/>
      <line x1="256.11966" x2="264.62707" y1="388.31166" y2="383.44945"/>
      <line x1="260.98253" x2="269.48928" y1="396.81907" y2="391.9562"/>
      <line x1="265.84474" x2="274.35215" y1="405.32647" y2="400.46361"/>
      <line x1="270.70761" x2="279.21502" y1="413.83323" y2="408.97101"/>
      <line x1="275.57048" x2="284.07788" y1="422.34063" y2="417.47776"/>
      <line x1="280.43335" x2="288.9401" y1="430.84804" y2="425.98517"/>
      <line x1="288.9401" x2="280.43335" y1="425.98517" y2="430.84804"/>
      <line x1="284.07788" x2="275.57048" y1="417.47776" y2="422.34063"/>
      <line x1="279.21502" x2="270.70761" y1="408.97101" y2="413.83323"/>
      <line x1="274.35215" x2="265.84474" y1="400.46361" y2="405.32647"/>
      <line x1="269.48928" x2="260.98253" y1="391.9562" y2="396.81907"/>
      <line x1="264.62707" x2="256.11966" y1="383.44945" y2="388.31166"/>
      <line x1="259.7642" x2="251.2568" y1="374.94205" y2="379.80426"/>
      <line x1="254.90133" x2="246.39458" y1="366.43464" y2="371.29751"/>
      <line x1="250.03912" x2="241.53171" y1="357.92724" y2="362.7901"/>
      <line x1="245.17625" x2="236.66885" y1="349.42048" y2="354.2827"/>
      <line x1="240.31338" x2="231.80598" y1="340.91308" y2="345.77595"/>
      <line x1="235.45052" x2="226.94377" y1="332.40567" y2="337.26854"/>
      <line x1="232.7813" x2="222.98566" y1="322.85828" y2="323.11305"/>
      <line x1="232.52718" x2="222.73154" y1="313.0633" y2="313.31742"/>
      <line x1="232.27306" x2="222.47743" y1="303.26767" y2="303.52178"/>
      <line x1="232.01829" x2="222.22266" y1="293.47203" y2="293.72615"/>
      <line x1="231.76417" x2="221.96854" y1="283.6764" y2="283.93052"/>
      <line x1="231.5094" x2="221.71377" y1="273.88076" y2="274.13488"/>
      <line x1="231.25528" x2="221.45965" y1="264.08513" y2="264.33925"/>
      <line x1="231.00116" x2="221.20553" y1="254.2895" y2="254.54361"/>
      <line x1="230.74639" x2="220.95076" y1="244.49386" y2="244.74798"/>
      <line x1="230.49227" x2="220.69664" y1="234.69823" y2="234.95235"/>
      <line x1="230.36489" x2="220.56599" y1="224.89998" y2="224.89998"/>
      <line x1="230.36489" x2="220.56599" y1="215.10108" y2="215.10108"/>
      <line x1="230.36489" x2="220.56599" y1="205.30218" y2="205.30218"/>
      <line x1="230.36489" x2="220.56599" y1="195.50328" y2="195.50328"/>
      <line x1="230.36489" x2="220.56599" y1="185.70438" y2="185.70438"/>
      <line x1="230.36489" x2="220.56599" y1="175.90548" y2="175.90548"/>
      <line x1="230.36489" x2="220.56599" y1="166.10658" y2="166.10658"/>
      <line x1="230.36489" x2="220.56599" y1="156.30768" y2="156.30768"/>
      <line x1="230.36489" x2="220.56599" y1="146.50878" y2="146.50878"/>
      <line x1="230.36489" x2="220.56599" y1="136.70988" y2="136.70988"/>
      <line x1="230.36489" x2="220.56599" y1="126.91098" y2="126.91098"/>
      <line x1="230.36489" x2="220.56599" y1="110.96687" y2="110.96687"/>
      <line x1="230.36489" x2="220.56599" y1="101.16797" y2="101.16797"/>
      <line x1="230.36489" x2="220.56599" y1="91.36907" y2="91.36907"/>
      <line x1="230.36489" x2="220.56599" y1="81.57017" y2="81.57017"/>
      <line x1="230.36489" x2="220.56599" y1="71.77127" y2="71.77127"/>
      <line x1="230.36489" x2="220.56599" y1="61.97237" y2="61.97237"/>
      <line x1="230.36489" x2="220.56599" y1="44.64334" y2="44.64334"/>
      <line x1="230.36489" x2="220.56599" y1="34.84444" y2="34.84444"/>
      <line x1="230.36489" x2="220.56599" y1="25.04554" y2="25.04554"/>
      <line x1="230.36489" x2="220.56599" y1="15.24664" y2="15.24664"/>
    </g>
    <polyline fill="none" points="216.61638,9.283779148788673 220.56599,15.24664 220.56599,25.04554 220.56599,34.84444 220.56599,44.64334 215.51172,52.95738 220.56599,61.97237 220.56599,71.77127 220.56599,81.57017 220.56599,91.36907 220.56599,101.16797 220.56599,110.96687 216.10814,118.93925 220.56599,126.91098 220.56599,136.70988 220.56599,146.50878 220.56599,156.30768 220.56599,166.10658 220.56599,175.90548 220.56599,185.70438 220.56599,195.50328 220.56599,205.30218 220.56599,215.10108 220.56599,224.89998 218.50169,230.5853 220.69664,234.95235 220.95076,244.74798 221.20553,254.54361 221.45965,264.33925 221.71377,274.13488 221.96854,283.93052 222.22266,293.72615 222.47743,303.52178 222.73154,313.31742 222.98566,323.11305 217.39245,315.0675 209.87277,308.7851 200.96035,304.71202 191.28883,303.13767 181.54481,304.17374 172.42073,307.74707 164.56397,313.60289 158.53372,321.32638 154.75723,330.36816 153.50297,340.08671 154.86044,349.79088 158.73362,358.79215 164.84618,366.45097 172.76434,372.22318 181.92631,375.69852 191.68079,376.63072 201.33467,374.95315 210.20332,370.78535 217.65571,364.42325 223.16335,356.31826 226.33427,347.04654 226.94377,337.26854 231.80598,345.77595 236.66885,354.2827 241.53171,362.7901 246.39458,371.29751 251.2568,379.80426 256.11966,388.31166 260.98253,396.81907 265.84474,405.32647 270.70761,413.83323 275.57048,422.34063 280.43335,430.84804 280.03355,441.55366 289.19748,447.1018 298.49795,441.78557 298.36795,431.07341 288.9401,425.98517 284.07788,417.47776 279.21502,408.97101 274.35215,400.46361 269.48928,391.9562 264.62707,383.44945 259.7642,374.94205 254.90133,366.43464 250.03912,357.92724 245.17625,349.42048 240.31338,340.91308 235.45052,332.40567 236.00513,329.24912 235.14218,325.85021 232.7813,322.85828 232.52718,313.0633 232.27306,303.26767 232.01829,293.47203 231.76417,283.6764 231.5094,273.88076 231.25528,264.08513 231.00116,254.2895 230.74639,244.49386 230.49227,234.69823 230.36489,224.89998 230.36489,215.10108 230.36489,205.30218 230.36489,195.50328 230.36489,185.70438 230.36489,175.90548 230.36489,166.10658 230.36489,156.30768 230.36489,146.50878 230.36489,136.70988 230.36489,126.91098 234.82273,118.93925 230.36489,110.96687 230.36489,101.16797 230.36489,91.36907 230.36489,81.57017 230.36489,71.77127 230.36489,61.97237 235.41916,52.95738 230.36489,44.64334 230.36489,34.84444 230.36489,25.04554 230.36489,15.24664 234.3145,0.5155208512113276" stroke="black" stroke-width="1.4613763829295576"/>
    <g fill="white" id="circles" stroke="black">
      <circle cx="216.61638" cy="4.89965" fill="white" r="4.384129148788673"/>
      <circle cx="220.56599" cy="15.24664" fill="white" r="4.384129148788673"/>
      <circle cx="220.56599" cy="25.04554" fill="white" r="4.384129148788673"/>
      <circle cx="220.56599" cy="34.84444" fill="white" r="4.384129148788673"/>
      <circle cx="220.56599" cy="44.64334" fill="white" r="4.384129148788673"/>
      <circle cx="215.51172" cy="52.95738" fill="white" r="4.384129148788673"/>
      <circle cx="220.56599" cy="61.97237" fill="white" r="4.384129148788673"/>
      <circle cx="220.56599" cy="71.77127" fill="white" r="4.384129148788673"/>
      <circle cx="220.56599" cy="81.57017" fill="white" r="4.384129148788673"/>
      <circle cx="220.56599" cy="91.36907" fill="white" r="4.384129148788673"/>
      <circle cx="220.56599" cy="101.16797" fill="white" r="4.384129148788673"/>
      <circle cx="220.56599" cy="110.96687" fill="white" r="4.384129148788673"/>
      <circle cx="216.10814" cy="118.93925" fill="white" r="4.384129148788673"/>
      <circle cx="220.56599" cy="126.91098" fill="white" r="4.384129148788673"/>
      <circle cx="220.56599" cy="136.70988" fill="white" r="4.384129148788673"/>
      <circle cx="220.56599" cy="146.50878" fill="white" r="4.384129148788673"/>
      <circle cx="220.56599" cy="156.30768" fill="white" r="4.384129148788673"/>
      <circle cx="220.56599" cy="166.10658" fill="white" r="4.384129148788673"/>
      <circle cx="220.56599" cy="175.90548" fill="white" r="4.384129148788673"/>
      <circle cx="220.56599" cy="185.70438" fill="white" r="4.384129148788673"/>
      <circle cx="220.56599" cy="195.50328" fill="white" r="4.384129148788673"/>
      <circle cx="220.56599" cy="205.30218" fill="white" r="4.384129148788673"/>
      <circle cx="220.56599" cy="215.10108" fill="white" r="4.384129148788673"/>
      <circle cx="220.56599" cy="224.89998" fill="white" r="4.384129148788673"/>
      <circle cx="218.50169" cy="230.5853" fill="white" r="4.384129148788673"/>
      <circle cx="220.69664" cy="234.95235" fill="white" r="4.384129148788673"/>
      <circle cx="220.95076" cy="244.74798" fill="white" r="4.384129148788673"/>
      <circle cx="221.20553" cy="254.54361" fill="white" r="4.384129148788673"/>
      <circle cx="221.45965" cy="264.33925" fill="white" r="4.384129148788673"/>
      <circle cx="221.71377" cy="274.13488" fill="white" r="4.384129148788673"/>
      <circle cx="221.96854" cy="283.93052" fill="white" r="4.384129148788673"/>
      <circle cx="222.22266" cy="293.72615" fill="white" r="4.384129148788673"/>
      <circle cx="222.47743" cy="303.52178" fill="white" r="4.384129148788673"/>
      <circle cx="222.73154" cy="313.31742" fill="white" r="4.384129148788673"/>
      <circle cx="222.98566" cy="323.11305" fill="white" r="4.384129148788673"/>
      <circle cx="217.39245" cy="315.0675" fill="white" r="4.384129148788673"/>
      <circle cx="209.87277" cy="308.7851" fill="white" r="4.384129148788673"/>
      <circle cx="200.96035" cy="304.71202" fill="white" r="4.384129148788673"/>
      <circle cx="191.28883" cy="303.13767" fill="white" r="4.384129148788673"/>
      <circle cx="181.54481" cy="304.17374" fill="white" r="4.384129148788673"/>
      <circle cx="172.42073" cy="307.74707" fill="white" r="4.384129148788673"/>
      <circle cx="164.56397" cy="313.60289" fill="white" r="4.384129148788673"/>
      <circle cx="158.53372" cy="321.32638" fill="white" r="4.384129148788673"/>
      <circle cx="154.75723" cy="330.36816" fill="white" r="4.384129148788673"/>
      <circle cx="153.50297" cy="340.08671" fill="white" r="4.384129148788673"/>
      <circle cx="154.86044" cy="349.79088" fill="white" r="4.384129148788673"/>
      <circle cx="158.73362" cy="358.79215" fill="white" r="4.384129148788673"/>
      <circle cx="164.84618" cy="366.45097" fill="white" r="4.384129148788673"/>
      <circle cx="172.76434" cy="372.22318" fill="white" r="4.384129148788673"/>
      <circle cx="181.92631" cy="375.69852" fill="white" r="4.384129148788673"/>
      <circle cx="191.68079" cy="376.63072" fill="white" r="4.384129148788673"/>
      <circle cx="201.33467" cy="374.95315" fill="white" r="4.384129148788673"/>
      <circle cx="210.20332" cy="370.78535" fill="white" r="4.384129148788673"/>
      <circle cx="217.65571" cy="364.42325" fill="white" r="4.384129148788673"/>
      <circle cx="223.16335" cy="356.31826" fill="white" r="4.384129148788673"/>
      <circle cx="226.33427" cy="347.04654" fill="white" r="4.384129148788673"/>
      <circle cx="226.94377" cy="337.26854" fill="white" r="4.384129148788673"/>
      <circle cx="231.80598" cy="345.77595" fill="white" r="4.384129148788673"/>
      <circle cx="236.66885" cy="354.2827" fill="white" r="4.384129148788673"/>
      <circle cx="241.53171" cy="362.7901" fill="white" r="4.384129148788673"/>
      <circle cx="246.39458" cy="371.29751" fill="white" r="4.384129148788673"/>
      <circle cx="251.2568" cy="379.80426" fill="white" r="4.384129148788673"/>
      <circle cx="256.11966" cy="388.31166" fill="white" r="4.384129148788673"/>
      <circle cx="260.98253" cy="396.81907" fill="white" r="4.384129148788673"/>
      <circle cx="265.84474" cy="405.32647" fill="white" r="4.384129148788673"/>
      <circle cx="270.70761" cy="413.83323" fill="white" r="4.384129148788673"/>
      <circle cx="275.57048" cy="422.34063" fill="white" r="4.384129148788673"/>
      <circle cx="280.43335" cy="430.84804" fill="white" r="4.384129148788673"/>
      <circle cx="280.03355" cy="441.55366" fill="white" r="4.384129148788673"/>
      <circle cx="289.19748" cy="447.1018" fill="white" r="4.384129148788673"/>
      <circle cx="298.49795" cy="441.78557" fill="white" r="4.384129148788673"/>
      <circle cx="298.36795" cy="431.07341" fill="white" r="4.384129148788673"/>
      <circle cx="288.9401" cy="425.98517" fill="white" r="4.384129148788673"/>
      <circle cx="284.07788" cy="417.47776" fill="white" r="4.384129148788673"/>
      <circle cx="279.21502" cy="408.97101" fill="white" r="4.384129148788673"/>
      <circle cx="274.35215" cy="400.46361" fill="white" r="4.384129148788673"/>
      <circle cx="269.48928" cy="391.9562" fill="white" r="4.384129148788673"/>
      <circle cx="264.62707" cy="383.44945" fill="white" r="4.384129148788673"/>
      <circle cx="259.7642" cy="374.94205" fill="white" r="4.384129148788673"/>
      <circle cx="254.90133" cy="366.43464" fill="white" r="4.384129148788673"/>
      <circle cx="250.03912" cy="357.92724" fill="white" r="4.384129148788673"/>
      <circle cx="245.17625" cy="349.42048" fill="white" r="4.384129148788673"/>
      <circle cx="240.31338" cy="340.91308" fill="white" r="4.384129148788673"/>
      <circle cx="235.45052" cy="332.40567" fill="white" r="4.384129148788673"/>
      <circle cx="236.00513" cy="329.24912" fill="white" r="4.384129148788673"/>
      <circle cx="235.14218" cy="325.85021" fill="white" r="4.384129148788673"/>
      <circle cx="232.7813" cy="322.85828" fill="white" r="4.384129148788673"/>
      <circle cx="232.52718" cy="313.0633" fill="white" r="4.384129148788673"/>
      <circle cx="232.27306" cy="303.26767" fill="white" r="4.384129148788673"/>
      <circle cx="232.01829" cy="293.47203" fill="white" r="4.384129148788673"/>
      <circle cx="231.76417" cy="283.6764" fill="white" r="4.384129148788673"/>
      <circle cx="231.5094" cy="273.88076" fill="white" r="4.384129148788673"/>
      <circle cx="231.25528" cy="264.08513" fill="white" r="4.384129148788673"/>
      <circle cx="231.00116" cy="254.2895" fill="white" r="4.384129148788673"/>
      <circle cx="230.74639" cy="244.49386" fill="white" r="4.384129148788673"/>
      <circle cx="230.49227" cy="234.69823" fill="white" r="4.384129148788673"/>
      <circle cx="230.36489" cy="224.89998" fill="white" r="4.384129148788673"/>
      <circle cx="230.36489" cy="215.10108" fill="white" r="4.384129148788673"/>
      <circle cx="230.36489" cy="205.30218" fill="white" r="4.384129148788673"/>
      <circle cx="230.36489" cy="195.50328" fill="white" r="4.384129148788673"/>
      <circle cx="230.36489" cy="185.70438" fill="white" r="4.384129148788673"/>
      <circle cx="230.36489" cy="175.90548" fill="white" r="4.384129148788673"/>
      <circle cx="230.36489" cy="166.10658" fill="white" r="4.384129148788673"/>
      <circle cx="230.36489" cy="156.30768" fill="white" r="4.384129148788673"/>
      <circle cx="230.36489" cy="146.50878" fill="white" r="4.384129148788673"/>
      <circle cx="230.36489" cy="136.70988" fill="white" r="4.384129148788673"/>
      <circle cx="230.36489" cy="126.91098" fill="white" r="4.384129148788673"/>
      <circle cx="234.82273" cy="118.93925" fill="white" r="4.384129148788673"/>
      <circle cx="230.36489" cy="110.96687" fill="white" r="4.384129148788673"/>
      <circle cx="230.36489" cy="101.16797" fill="white" r="4.384129148788673"/>
      <circle cx="230.36489" cy="91.36907" fill="white" r="4.384129148788673"/>
      <circle cx="230.36489" cy="81.57017" fill="white" r="4.384129148788673"/>
      <circle cx="230.36489" cy="71.77127" fill="white" r="4.384129148788673"/>
      <circle cx="230.36489" cy="61.97237" fill="white" r="4.384129148788673"/>
      <circle cx="235.41916" cy="52.95738" fill="white" r="4.384129148788673"/>
      <circle cx="230.36489" cy="44.64334" fill="white" r="4.384129148788673"/>
      <circle cx="230.36489" cy="34.84444" fill="white" r="4.384129148788673"/>
      <circle cx="230.36489" cy="25.04554" fill="white" r="4.384129148788673"/>
      <circle cx="230.36489" cy="15.24664" fill="white" r="4.384129148788673"/>
      <circle cx="234.3145" cy="4.89965" fill="white" r="4.384129148788673"/>
      <circle cx="220.56599" cy="136.70988" fill="#cc00cd" r="4.384129148788673"/>
      <circle cx="220.56599" cy="146.50878" fill="#cc00cd" r="4.384129148788673"/>
      <circle cx="220.56599" cy="156.30768" fill="#cc00cd" r="4.384129148788673"/>
      <circle cx="220.56599" cy="166.10658" fill="#cc00cd" r="4.384129148788673"/>
      <circle cx="220.56599" cy="175.90548" fill="#cc00cd" r="4.384129148788673"/>
      <circle cx="220.56599" cy="185.70438" fill="#cc00cd" r="4.384129148788673"/>
      <circle cx="220.56599" cy="195.50328" fill="#cc00cd" r="4.384129148788673"/>
      <circle cx="220.56599" cy="205.30218" fill="#cc00cd" r="4.384129148788673"/>
      <circle cx="220.56599" cy="215.10108" fill="#cc00cd" r="4.384129148788673"/>
      <circle cx="220.56599" cy="224.89998" fill="#cc00cd" r="4.384129148788673"/>
      <circle cx="218.50169" cy="230.5853" fill="#cc00cd" r="4.384129148788673"/>
      <circle cx="220.69664" cy="234.95235" fill="#cc00cd" r="4.384129148788673"/>
      <circle cx="220.95076" cy="244.74798" fill="#cc00cd" r="4.384129148788673"/>
      <circle cx="221.20553" cy="254.54361" fill="#cc00cd" r="4.384129148788673"/>
      <circle cx="221.45965" cy="264.33925" fill="#cc00cd" r="4.384129148788673"/>
      <circle cx="221.71377" cy="274.13488" fill="#cc00cd" r="4.384129148788673"/>
      <circle cx="221.96854" cy="283.93052" fill="#cc00cd" r="4.384129148788673"/>
      <circle cx="222.22266" cy="293.72615" fill="#cc00cd" r="4.384129148788673"/>
      <circle cx="222.47743" cy="303.52178" fill="#cc00cd" r="4.384129148788673"/>
      <circle cx="222.73154" cy="313.31742" fill="#cc00cd" r="4.384129148788673"/>
      <circle cx="231.76417" cy="283.6764" fill="#ff3399" r="4.384129148788673"/>
      <circle cx="231.5094" cy="273.88076" fill="#ff3399" r="4.384129148788673"/>
      <circle cx="231.25528" cy="264.08513" fill="#ff3399" r="4.384129148788673"/>
      <circle cx="231.00116" cy="254.2895" fill="#ff3399" r="4.384129148788673"/>
      <circle cx="230.74639" cy="244.49386" fill="#ff3399" r="4.384129148788673"/>
      <circle cx="230.49227" cy="234.69823" fill="#ff3399" r="4.384129148788673"/>
      <circle cx="230.36489" cy="224.89998" fill="#ff3399" r="4.384129148788673"/>
      <circle cx="230.36489" cy="215.10108" fill="#ff3399" r="4.384129148788673"/>
      <circle cx="230.36489" cy="205.30218" fill="#ff3399" r="4.384129148788673"/>
      <circle cx="230.36489" cy="195.50328" fill="#ff3399" r="4.384129148788673"/>
      <circle cx="230.36489" cy="185.70438" fill="#ff3399" r="4.384129148788673"/>
      <circle cx="230.36489" cy="175.90548" fill="#ff3399" r="4.384129148788673"/>
      <circle cx="230.36489" cy="166.10658" fill="#ff3399" r="4.384129148788673"/>
      <circle cx="230.36489" cy="156.30768" fill="#ff3399" r="4.384129148788673"/>
      <circle cx="230.36489" cy="146.50878" fill="#ff3399" r="4.384129148788673"/>
      <circle cx="230.36489" cy="136.70988" fill="#ff3399" r="4.384129148788673"/>
      <circle cx="230.36489" cy="126.91098" fill="#ff3399" r="4.384129148788673"/>
      <circle cx="234.82273" cy="118.93925" fill="#ff3399" r="4.384129148788673"/>
      <circle cx="230.36489" cy="110.96687" fill="#ff3399" r="4.384129148788673"/>
    </g>
    <g fill="black" font-family="Helvetica" font-size="6.356987265743575px" font-weight="bold" id="nucleotides" transform="translate(0,2.1931606066815332)">
      <text text-anchor="middle" x="216.61638" y="4.89965">A</text>
      <text text-anchor="middle" x="220.56599" y="15.24664">A</text>
      <text text-anchor="middle" x="220.56599" y="25.04554">C</text>
      <text text-anchor="middle" x="220.56599" y="34.84444">C</text>
      <text text-anchor="middle" x="220.56599" y="44.64334">A</text>
      <text text-anchor="middle" x="215.51172" y="52.95738">C</text>
      <text text-anchor="middle" x="220.56599" y="61.97237">U</text>
      <text text-anchor="middle" x="220.56599" y="71.77127">A</text>
      <text text-anchor="middle" x="220.56599" y="81.57017">A</text>
      <text text-anchor="middle" x="220.56599" y="91.36907">U</text>
      <text text-anchor="middle" x="220.56599" y="101.16797">A</text>
      <text text-anchor="middle" x="220.56599" y="110.96687">G</text>
      <text text-anchor="middle" x="216.10814" y="118.93925">U</text>
      <text text-anchor="middle" x="220.56599" y="126.91098">U</text>
      <text text-anchor="middle" x="220.56599" y="136.70988">G</text>
      <text text-anchor="middle" x="220.56599" y="146.50878">A</text>
      <text text-anchor="middle" x="220.56599" y="156.30768">A</text>
      <text text-anchor="middle" x="220.56599" y="166.10658">G</text>
      <text text-anchor="middle" x="220.56599" y="175.90548">C</text>
      <text text-anchor="middle" x="220.56599" y="185.70438">U</text>
      <text text-anchor="middle" x="220.56599" y="195.50328">G</text>
      <text text-anchor="middle" x="220.56599" y="205.30218">C</text>
      <text text-anchor="middle" x="220.56599" y="215.10108">C</text>
      <text text-anchor="middle" x="220.56599" y="224.89998">A</text>
      <text text-anchor="middle" x="218.50169" y="230.5853">G</text>
      <text text-anchor="middle" x="220.69664" y="234.95235">C</text>
      <text text-anchor="middle" x="220.95076" y="244.74798">A</text>
      <text text-anchor="middle" x="221.20553" y="254.54361">U</text>
      <text text-anchor="middle" x="221.45965" y="264.33925">G</text>
      <text text-anchor="middle" x="221.71377" y="274.13488">A</text>
      <text text-anchor="middle" x="221.96854" y="283.93052">U</text>
      <text text-anchor="middle" x="222.22266" y="293.72615">C</text>
      <text text-anchor="middle" x="222.47743" y="303.52178">U</text>
      <text text-anchor="middle" x="222.73154" y="313.31742">G</text>
      <text text-anchor="middle" x="222.98566" y="323.11305">A</text>
      <text text-anchor="middle" x="217.39245" y="315.0675">G</text>
      <text text-anchor="middle" x="209.87277" y="308.7851">C</text>
      <text text-anchor="middle" x="200.96035" y="304.71202">U</text>
      <text text-anchor="middle" x="191.28883" y="303.13767">U</text>
      <text text-anchor="middle" x="181.54481" y="304.17374">U</text>
      <text text-anchor="middle" x="172.42073" y="307.74707">C</text>
      <text text-anchor="middle" x="164.56397" y="313.60289">A</text>
      <text text-anchor="middle" x="158.53372" y="321.32638">U</text>
      <text text-anchor="middle" x="154.75723" y="330.36816">U</text>
      <text text-anchor="middle" x="153.50297" y="340.08671">A</text>
      <text text-anchor="middle" x="154.86044" y="349.79088">A</text>
      <text text-anchor="middle" x="158.73362" y="358.79215">A</text>
      <text text-anchor="middle" x="164.84618" y="366.45097">A</text>
      <text text-anchor="middle" x="172.76434" y="372.22318">U</text>
      <text text-anchor="middle" x="181.92631" y="375.69852">U</text>
      <text text-anchor="middle" x="191.68079" y="376.63072">G</text>
      <text text-anchor="middle" x="201.33467" y="374.95315">U</text>
      <text text-anchor="middle" x="210.20332" y="370.78535">C</text>
      <text text-anchor="middle" x="217.65571" y="364.42325">C</text>
      <text text-anchor="middle" x="223.16335" y="356.31826">A</text>
      <text text-anchor="middle" x="226.33427" y="347.04654">A</text>
      <text text-anchor="middle" x="226.94377" y="337.26854">A</text>
      <text text-anchor="middle" x="231.80598" y="345.77595">U</text>
      <text text-anchor="middle" x="236.66885" y="354.2827">U</text>
      <text text-anchor="middle" x="241.53171" y="362.7901">C</text>
      <text text-anchor="middle" x="246.39458" y="371.29751">C</text>
      <text text-anchor="middle" x="251.2568" y="379.80426">U</text>
      <text text-anchor="middle" x="256.11966" y="388.31166">A</text>
      <text text-anchor="middle" x="260.98253" y="396.81907">U</text>
      <text text-anchor="middle" x="265.84474" y="405.32647">A</text>
      <text text-anchor="middle" x="270.70761" y="413.83323">U</text>
      <text text-anchor="middle" x="275.57048" y="422.34063">A</text>
      <text text-anchor="middle" x="280.43335" y="430.84804">U</text>
      <text text-anchor="middle" x="280.03355" y="441.55366">A</text>
      <text text-anchor="middle" x="289.19748" y="447.1018">U</text>
      <text text-anchor="middle" x="298.49795" y="441.78557">A</text>
      <text text-anchor="middle" x="298.36795" y="431.07341">U</text>
      <text text-anchor="middle" x="288.9401" y="425.98517">A</text>
      <text text-anchor="middle" x="284.07788" y="417.47776">U</text>
      <text text-anchor="middle" x="279.21502" y="408.97101">A</text>
      <text text-anchor="middle" x="274.35215" y="400.46361">U</text>
      <text text-anchor="middle" x="269.48928" y="391.9562">A</text>
      <text text-anchor="middle" x="264.62707" y="383.44945">U</text>
      <text text-anchor="middle" x="259.7642" y="374.94205">A</text>
      <text text-anchor="middle" x="254.90133" y="366.43464">G</text>
      <text text-anchor="middle" x="250.03912" y="357.92724">G</text>
      <text text-anchor="middle" x="245.17625" y="349.42048">A</text>
      <text text-anchor="middle" x="240.31338" y="340.91308">G</text>
      <text text-anchor="middle" x="235.45052" y="332.40567">U</text>
      <text text-anchor="middle" x="236.00513" y="329.24912">G</text>
      <text text-anchor="middle" x="235.14218" y="325.85021">A</text>
      <text text-anchor="middle" x="232.7813" y="322.85828">U</text>
      <text text-anchor="middle" x="232.52718" y="313.0633">C</text>
      <text text-anchor="middle" x="232.27306" y="303.26767">A</text>
      <text text-anchor="middle" x="232.01829" y="293.47203">G</text>
      <text text-anchor="middle" x="231.76417" y="283.6764">A</text>
      <text text-anchor="middle" x="231.5094" y="273.88076">U</text>
      <text text-anchor="middle" x="231.25528" y="264.08513">C</text>
      <text text-anchor="middle" x="231.00116" y="254.2895">A</text>
      <text text-anchor="middle" x="230.74639" y="244.49386">U</text>
      <text text-anchor="middle" x="230.49227" y="234.69823">G</text>
      <text text-anchor="middle" x="230.36489" y="224.89998">U</text>
      <text text-anchor="middle" x="230.36489" y="215.10108">G</text>
      <text text-anchor="middle" x="230.36489" y="205.30218">G</text>
      <text text-anchor="middle" x="230.36489" y="195.50328">C</text>
      <text text-anchor="middle" x="230.36489" y="185.70438">A</text>
      <text text-anchor="middle" x="230.36489" y="175.90548">G</text>
      <text text-anchor="middle" x="230.36489" y="166.10658">C</text>
      <text text-anchor="middle" x="230.36489" y="156.30768">U</text>
      <text text-anchor="middle" x="230.36489" y="146.50878">U</text>
      <text text-anchor="middle" x="230.36489" y="136.70988">C</text>
      <text text-anchor="middle" x="230.36489" y="126.91098">A</text>
      <text text-anchor="middle" x="234.82273" y="118.93925">C</text>
      <text text-anchor="middle" x="230.36489" y="110.96687">C</text>
      <text text-anchor="middle" x="230.36489" y="101.16797">U</text>
      <text text-anchor="middle" x="230.36489" y="91.36907">G</text>
      <text text-anchor="middle" x="230.36489" y="81.57017">U</text>
      <text text-anchor="middle" x="230.36489" y="71.77127">U</text>
      <text text-anchor="middle" x="230.36489" y="61.97237">G</text>
      <text text-anchor="middle" x="235.41916" y="52.95738">A</text>
      <text text-anchor="middle" x="230.36489" y="44.64334">U</text>
      <text text-anchor="middle" x="230.36489" y="34.84444">G</text>
      <text text-anchor="middle" x="230.36489" y="25.04554">G</text>
      <text text-anchor="middle" x="230.36489" y="15.24664">U</text>
      <text text-anchor="middle" x="234.3145" y="4.89965">A</text>
    </g>
  </g>
</svg>
