<?xml version="1.0" encoding="utf-8" ?>
<svg baseProfile="full" height="100%" preserveAspectRatio="xMidYMid meet" version="1.1" viewBox="0, 0, 452.0, 452.0" width="100%" xmlns="http://www.w3.org/2000/svg" xmlns:ev="http://www.w3.org/2001/xml-events" xmlns:xlink="http://www.w3.org/1999/xlink">
  <defs/>
  <g id="precursor" transform="translate(0, 10) scale(0.95, 0.95)">
    <g id="pairs" stroke="black" stroke-width="1.0631376775514767">
      <line x1="213.87566" x2="226.04216" y1="18.9303" y2="18.9303"/>
      <line x1="213.87566" x2="226.04216" y1="31.0968" y2="31.0968"/>
      <line x1="213.87566" x2="226.04216" y1="43.2633" y2="43.2633"/>
      <line x1="213.87566" x2="226.04216" y1="55.4298" y2="55.4298"/>
      <line x1="213.87566" x2="226.04216" y1="67.5963" y2="67.5963"/>
      <line x1="213.87566" x2="226.04216" y1="79.7628" y2="79.7628"/>
      <line x1="213.87566" x2="226.04216" y1="91.9293" y2="91.9293"/>
      <line x1="213.87566" x2="226.04216" y1="104.0958" y2="104.0958"/>
      <line x1="213.87566" x2="226.04216" y1="133.83315" y2="133.83315"/>
      <line x1="213.87566" x2="226.04216" y1="145.99965" y2="145.99965"/>
      <line x1="213.87566" x2="226.04216" y1="158.16615" y2="158.16615"/>
      <line x1="213.87566" x2="226.04216" y1="170.33265" y2="170.33265"/>
      <line x1="213.87566" x2="226.04216" y1="182.49915" y2="182.49915"/>
      <line x1="213.87566" x2="226.04216" y1="194.66565" y2="194.66565"/>
      <line x1="213.87566" x2="226.04216" y1="214.46217" y2="214.46217"/>
      <line x1="213.87566" x2="226.04216" y1="226.62867" y2="226.62867"/>
      <line x1="213.87566" x2="226.04216" y1="238.79517" y2="238.79517"/>
      <line x1="213.87566" x2="226.04216" y1="250.96167" y2="250.96167"/>
      <line x1="213.87566" x2="226.04216" y1="263.12817" y2="263.12817"/>
      <line x1="213.87566" x2="226.04216" y1="275.29467" y2="275.29467"/>
      <line x1="213.87566" x2="226.04216" y1="287.46117" y2="287.46117"/>
      <line x1="214.09547" x2="226.25467" y1="300.05026" y2="299.62605"/>
      <line x1="214.51967" x2="226.67887" y1="312.20946" y2="311.78525"/>
      <line x1="214.94469" x2="227.10389" y1="324.36866" y2="323.94364"/>
      <line x1="215.36889" x2="227.52809" y1="336.52786" y2="336.10284"/>
      <line x1="213.46605" x2="224.89851" y1="348.5443" y2="352.70525"/>
      <line x1="209.30511" x2="220.73756" y1="359.97757" y2="364.13851"/>
      <line x1="205.14336" x2="216.57662" y1="371.41002" y2="375.57097"/>
      <line x1="200.98241" x2="212.41487" y1="382.84248" y2="387.00423"/>
      <line x1="196.82147" x2="208.25392" y1="394.27574" y2="398.43669"/>
      <line x1="192.65972" x2="204.09298" y1="405.7082" y2="409.86914"/>
      <line x1="188.49877" x2="199.93123" y1="417.14146" y2="421.30241"/>
      <line x1="199.93123" x2="188.49877" y1="421.30241" y2="417.14146"/>
      <line x1="204.09298" x2="192.65972" y1="409.86914" y2="405.7082"/>
      <line x1="208.25392" x2="196.82147" y1="398.43669" y2="394.27574"/>
      <line x1="212.41487" x2="200.98241" y1="387.00423" y2="382.84248"/>
      <line x1="216.57662" x2="205.14336" y1="375.57097" y2="371.41002"/>
      <line x1="220.73756" x2="209.30511" y1="364.13851" y2="359.97757"/>
      <line x1="224.89851" x2="213.46605" y1="352.70525" y2="348.5443"/>
      <line x1="227.52809" x2="215.36889" y1="336.10284" y2="336.52786"/>
      <line x1="227.10389" x2="214.94469" y1="323.94364" y2="324.36866"/>
      <line x1="226.67887" x2="214.51967" y1="311.78525" y2="312.20946"/>
      <line x1="226.25467" x2="214.09547" y1="299.62605" y2="300.05026"/>
      <line x1="226.04216" x2="213.87566" y1="287.46117" y2="287.46117"/>
      <line x1="226.04216" x2="213.87566" y1="275.29467" y2="275.29467"/>
      <line x1="226.04216" x2="213.87566" y1="263.12817" y2="263.12817"/>
      <line x1="226.04216" x2="213.87566" y1="250.96167" y2="250.96167"/>
      <line x1="226.04216" x2="213.87566" y1="238.79517" y2="238.79517"/>
      <line x1="226.04216" x2="213.87566" y1="226.62867" y2="226.62867"/>
      <line x1="226.04216" x2="213.87566" y1="214.46217" y2="214.46217"/>
      <line x1="226.04216" x2="213.87566" y1="194.66565" y2="194.66565"/>
      <line x1="226.04216" x2="213.87566" y1="182.49915" y2="182.49915"/>
      <line x1="226.04216" x2="213.87566" y1="170.33265" y2="170.33265"/>
      <line x1="226.04216" x2="213.87566" y1="158.16615" y2="158.16615"/>
      <line x1="226.04216" x2="213.87566" y1="145.99965" y2="145.99965"/>
      <line x1="226.04216" x2="213.87566" y1="133.83315" y2="133.83315"/>
      <line x1="226.04216" x2="213.87566" y1="104.0958" y2="104.0958"/>
      <line x1="226.04216" x2="213.87566" y1="91.9293" y2="91.9293"/>
      <line x1="226.04216" x2="213.87566" y1="79.7628" y2="79.7628"/>
      <line x1="226.04216" x2="213.87566" y1="67.5963" y2="67.5963"/>
      <line x1="226.04216" x2="213.87566" y1="55.4298" y2="55.4298"/>
      <line x1="226.04216" x2="213.87566" y1="43.2633" y2="43.2633"/>
      <line x1="226.04216" x2="213.87566" y1="31.0968" y2="31.0968"/>
      <line x1="226.04216" x2="213.87566" y1="18.9303" y2="18.9303"/>
    </g>
    <polyline fill="none" points="208.97175,-0.2955460653088595 213.87566,18.9303 213.87566,31.0968 213.87566,43.2633 213.87566,55.4298 213.87566,67.5963 213.87566,79.7628 213.87566,91.9293 213.87566,104.0958 205.2123,112.46473 205.03872,124.80318 213.87566,133.83315 213.87566,145.99965 213.87566,158.16615 213.87566,170.33265 213.87566,182.49915 213.87566,194.66565 208.34071,204.56432 213.87566,214.46217 213.87566,226.62867 213.87566,238.79517 213.87566,250.96167 213.87566,263.12817 213.87566,275.29467 213.87566,287.46117 211.29312,294.59966 214.09547,300.05026 214.51967,312.20946 214.94469,324.36866 215.36889,336.52786 213.46605,348.5443 209.30511,359.97757 205.14336,371.41002 200.98241,382.84248 196.82147,394.27574 192.65972,405.7082 188.49877,417.14146 177.24557,423.67487 175.45385,436.56406 184.49762,445.9201 197.43953,444.56638 204.35172,433.54109 199.93123,421.30241 204.09298,409.86914 208.25392,398.43669 212.41487,387.00423 216.57662,375.57097 220.73756,364.13851 224.89851,352.70525 229.68562,363.89113 239.01165,371.70364 250.86344,374.45651 262.67792,371.55359 271.905,363.62265 276.54935,352.37756 275.60767,340.24756 269.28433,329.85331 258.94443,323.44076 246.82335,322.39606 235.53852,326.94309 227.52809,336.10284 227.10389,323.94364 226.67887,311.78525 226.25467,299.62605 226.04216,287.46117 226.04216,275.29467 226.04216,263.12817 226.04216,250.96167 226.04216,238.79517 226.04216,226.62867 226.04216,214.46217 231.5771,204.56432 226.04216,194.66565 226.04216,182.49915 226.04216,170.33265 226.04216,158.16615 226.04216,145.99965 226.04216,133.83315 234.87909,124.80318 234.70552,112.46473 226.04216,104.0958 226.04216,91.9293 226.04216,79.7628 226.04216,67.5963 226.04216,55.4298 226.04216,43.2633 226.04216,31.0968 226.04216,18.9303 230.94607,12.46210606530886" stroke="black" stroke-width="4.624648897348923"/>
    <g fill="#9494b8" id="circles">
      <circle cx="226.04216" cy="250.96167" fill="#ff0000" r="6.37882606530886"/>
      <circle cx="226.04216" cy="238.79517" fill="#ff0000" r="6.37882606530886"/>
      <circle cx="226.04216" cy="226.62867" fill="#ff0000" r="6.37882606530886"/>
      <circle cx="226.04216" cy="214.46217" fill="#ff0000" r="6.37882606530886"/>
      <circle cx="231.5771" cy="204.56432" fill="#ff0000" r="6.37882606530886"/>
      <circle cx="226.04216" cy="194.66565" fill="#ff0000" r="6.37882606530886"/>
      <circle cx="226.04216" cy="182.49915" fill="#ff0000" r="6.37882606530886"/>
      <circle cx="226.04216" cy="170.33265" fill="#ff0000" r="6.37882606530886"/>
      <circle cx="226.04216" cy="158.16615" fill="#ff0000" r="6.37882606530886"/>
      <circle cx="226.04216" cy="145.99965" fill="#ff0000" r="6.37882606530886"/>
      <circle cx="226.04216" cy="133.83315" fill="#ff0000" r="6.37882606530886"/>
      <circle cx="234.87909" cy="124.80318" fill="#ff0000" r="6.37882606530886"/>
      <circle cx="234.70552" cy="112.46473" fill="#ff0000" r="6.37882606530886"/>
      <circle cx="226.04216" cy="104.0958" fill="#ff0000" r="6.37882606530886"/>
      <circle cx="226.04216" cy="91.9293" fill="#ff0000" r="6.37882606530886"/>
      <circle cx="226.04216" cy="79.7628" fill="#ff0000" r="6.37882606530886"/>
      <circle cx="226.04216" cy="67.5963" fill="#ff0000" r="6.37882606530886"/>
      <circle cx="226.04216" cy="55.4298" fill="#ff0000" r="6.37882606530886"/>
      <circle cx="226.04216" cy="43.2633" fill="#ff0000" r="6.37882606530886"/>
      <circle cx="226.04216" cy="31.0968" fill="#ff0000" r="6.37882606530886"/>
      <circle cx="226.04216" cy="18.9303" fill="#ff0000" r="6.37882606530886"/>
      <circle cx="213.87566" cy="43.2633" fill="#ff9933" r="6.37882606530886"/>
      <circle cx="213.87566" cy="55.4298" fill="#ff9933" r="6.37882606530886"/>
      <circle cx="213.87566" cy="67.5963" fill="#ff9933" r="6.37882606530886"/>
      <circle cx="213.87566" cy="79.7628" fill="#ff9933" r="6.37882606530886"/>
      <circle cx="213.87566" cy="91.9293" fill="#ff9933" r="6.37882606530886"/>
      <circle cx="213.87566" cy="104.0958" fill="#ff9933" r="6.37882606530886"/>
      <circle cx="205.2123" cy="112.46473" fill="#ff9933" r="6.37882606530886"/>
      <circle cx="205.03872" cy="124.80318" fill="#ff9933" r="6.37882606530886"/>
      <circle cx="213.87566" cy="133.83315" fill="#ff9933" r="6.37882606530886"/>
      <circle cx="213.87566" cy="145.99965" fill="#ff9933" r="6.37882606530886"/>
      <circle cx="213.87566" cy="158.16615" fill="#ff9933" r="6.37882606530886"/>
      <circle cx="213.87566" cy="170.33265" fill="#ff9933" r="6.37882606530886"/>
      <circle cx="213.87566" cy="182.49915" fill="#ff9933" r="6.37882606530886"/>
      <circle cx="213.87566" cy="194.66565" fill="#ff9933" r="6.37882606530886"/>
      <circle cx="208.34071" cy="204.56432" fill="#ff9933" r="6.37882606530886"/>
      <circle cx="213.87566" cy="214.46217" fill="#ff9933" r="6.37882606530886"/>
      <circle cx="213.87566" cy="226.62867" fill="#ff9933" r="6.37882606530886"/>
      <circle cx="213.87566" cy="238.79517" fill="#ff9933" r="6.37882606530886"/>
      <circle cx="213.87566" cy="250.96167" fill="#ff9933" r="6.37882606530886"/>
      <circle cx="213.87566" cy="263.12817" fill="#ff9933" r="6.37882606530886"/>
      <circle cx="213.87566" cy="275.29467" fill="#ff9933" r="6.37882606530886"/>
    </g>
    <g fill="black" font-family="Helvetica" font-size="9.249297794697846" font-weight="bold" id="nucleotides" transform="translate(0,3.1910077391707565)">
      <text text-anchor="middle" x="226.04216" y="250.96167">U</text>
      <text text-anchor="middle" x="226.04216" y="238.79517">C</text>
      <text text-anchor="middle" x="226.04216" y="226.62867">G</text>
      <text text-anchor="middle" x="226.04216" y="214.46217">G</text>
      <text text-anchor="middle" x="231.5771" y="204.56432">A</text>
      <text text-anchor="middle" x="226.04216" y="194.66565">C</text>
      <text text-anchor="middle" x="226.04216" y="182.49915">C</text>
      <text text-anchor="middle" x="226.04216" y="170.33265">A</text>
      <text text-anchor="middle" x="226.04216" y="158.16615">G</text>
      <text text-anchor="middle" x="226.04216" y="145.99965">G</text>
      <text text-anchor="middle" x="226.04216" y="133.83315">C</text>
      <text text-anchor="middle" x="234.87909" y="124.80318">U</text>
      <text text-anchor="middle" x="234.70552" y="112.46473">U</text>
      <text text-anchor="middle" x="226.04216" y="104.0958">C</text>
      <text text-anchor="middle" x="226.04216" y="91.9293">A</text>
      <text text-anchor="middle" x="226.04216" y="79.7628">U</text>
      <text text-anchor="middle" x="226.04216" y="67.5963">U</text>
      <text text-anchor="middle" x="226.04216" y="55.4298">C</text>
      <text text-anchor="middle" x="226.04216" y="43.2633">C</text>
      <text text-anchor="middle" x="226.04216" y="31.0968">C</text>
      <text text-anchor="middle" x="226.04216" y="18.9303">C</text>
      <text text-anchor="middle" x="213.87566" y="43.2633">G</text>
      <text text-anchor="middle" x="213.87566" y="55.4298">G</text>
      <text text-anchor="middle" x="213.87566" y="67.5963">A</text>
      <text text-anchor="middle" x="213.87566" y="79.7628">A</text>
      <text text-anchor="middle" x="213.87566" y="91.9293">U</text>
      <text text-anchor="middle" x="213.87566" y="104.0958">G</text>
      <text text-anchor="middle" x="205.2123" y="112.46473">U</text>
      <text text-anchor="middle" x="205.03872" y="124.80318">U</text>
      <text text-anchor="middle" x="213.87566" y="133.83315">G</text>
      <text text-anchor="middle" x="213.87566" y="145.99965">U</text>
      <text text-anchor="middle" x="213.87566" y="158.16615">C</text>
      <text text-anchor="middle" x="213.87566" y="170.33265">U</text>
      <text text-anchor="middle" x="213.87566" y="182.49915">G</text>
      <text text-anchor="middle" x="213.87566" y="194.66565">G</text>
      <text text-anchor="middle" x="208.34071" y="204.56432">C</text>
      <text text-anchor="middle" x="213.87566" y="214.46217">U</text>
      <text text-anchor="middle" x="213.87566" y="226.62867">C</text>
      <text text-anchor="middle" x="213.87566" y="238.79517">G</text>
      <text text-anchor="middle" x="213.87566" y="250.96167">A</text>
      <text text-anchor="middle" x="213.87566" y="263.12817">A</text>
      <text text-anchor="middle" x="213.87566" y="275.29467">G</text>
    </g>
  </g>
</svg>
