<?xml version="1.0" encoding="utf-8" ?>
<svg baseProfile="full" height="100%" preserveAspectRatio="xMidYMid meet" version="1.1" viewBox="0, 0, 452, 452" width="100%" xmlns="http://www.w3.org/2000/svg" xmlns:ev="http://www.w3.org/2001/xml-events" xmlns:xlink="http://www.w3.org/1999/xlink">
  <defs/>
  <g id="precursor" transform="translate(0, 10) scale(0.95, 0.95)">
    <g id="pairs" stroke="black" stroke-width="1.0339473719629695">
      <line x1="215.89441" x2="227.02126" y1="17.31304" y2="17.31304"/>
      <line x1="215.89441" x2="227.02126" y1="28.43989" y2="28.43989"/>
      <line x1="215.89441" x2="227.02126" y1="39.56674" y2="39.56674"/>
      <line x1="215.89441" x2="227.02126" y1="50.69359" y2="50.69359"/>
      <line x1="215.89441" x2="227.02126" y1="61.82044" y2="61.82044"/>
      <line x1="215.89441" x2="227.02126" y1="72.94729" y2="72.94729"/>
      <line x1="215.89441" x2="227.02126" y1="92.62476" y2="92.62476"/>
      <line x1="215.89441" x2="227.02126" y1="103.75161" y2="103.75161"/>
      <line x1="215.89441" x2="227.02126" y1="114.87846" y2="114.87846"/>
      <line x1="215.89441" x2="227.02126" y1="126.00531" y2="126.00531"/>
      <line x1="215.89441" x2="227.02126" y1="137.13216" y2="137.13216"/>
      <line x1="215.71564" x2="226.8373" y1="148.25752" y2="148.61433"/>
      <line x1="215.35958" x2="226.4805" y1="159.37844" y2="159.73524"/>
      <line x1="214.72832" x2="225.84998" y1="179.04626" y2="179.40306"/>
      <line x1="214.0978" x2="225.21871" y1="198.71408" y2="199.07088"/>
      <line x1="213.741" x2="224.86265" y1="209.835" y2="210.1918"/>
      <line x1="213.38494" x2="224.50585" y1="220.95665" y2="221.31271"/>
      <line x1="213.02813" x2="224.14905" y1="232.07757" y2="232.43437"/>
      <line x1="212.67133" x2="223.79225" y1="243.19848" y2="243.55529"/>
      <line x1="212.31453" x2="223.43619" y1="254.3194" y2="254.6762"/>
      <line x1="211.95847" x2="223.07939" y1="265.44106" y2="265.79786"/>
      <line x1="211.60167" x2="222.72259" y1="276.56197" y2="276.91877"/>
      <line x1="211.24487" x2="222.36579" y1="287.68289" y2="288.03969"/>
      <line x1="205.47671" x2="210.93703" y1="297.19857" y2="306.89302"/>
      <line x1="195.78152" x2="201.24183" y1="302.65815" y2="312.35334"/>
      <line x1="186.08706" x2="191.54664" y1="308.11846" y2="317.81366"/>
      <line x1="191.54664" x2="186.08706" y1="317.81366" y2="308.11846"/>
      <line x1="201.24183" x2="195.78152" y1="312.35334" y2="302.65815"/>
      <line x1="210.93703" x2="205.47671" y1="306.89302" y2="297.19857"/>
      <line x1="225.80176" x2="236.36188" y1="316.60231" y2="313.09587"/>
      <line x1="229.3082" x2="239.86758" y1="327.16244" y2="323.656"/>
      <line x1="237.87736" x2="248.43748" y1="352.97302" y2="349.46658"/>
      <line x1="241.3838" x2="251.94392" y1="363.53314" y2="360.0267"/>
      <line x1="245.17657" x2="255.61875" y1="374.37218" y2="370.52971"/>
      <line x1="249.01979" x2="259.46196" y1="384.81436" y2="380.97188"/>
      <line x1="252.86226" x2="263.30444" y1="395.25653" y2="391.41406"/>
      <line x1="256.70473" x2="267.14765" y1="405.69871" y2="401.85624"/>
      <line x1="260.54794" x2="270.99012" y1="416.14089" y2="412.29842"/>
      <line x1="264.39042" x2="274.83259" y1="426.58307" y2="422.74059"/>
      <line x1="274.83259" x2="264.39042" y1="422.74059" y2="426.58307"/>
      <line x1="270.99012" x2="260.54794" y1="412.29842" y2="416.14089"/>
      <line x1="267.14765" x2="256.70473" y1="401.85624" y2="405.69871"/>
      <line x1="263.30444" x2="252.86226" y1="391.41406" y2="395.25653"/>
      <line x1="259.46196" x2="249.01979" y1="380.97188" y2="384.81436"/>
      <line x1="255.61875" x2="245.17657" y1="370.52971" y2="374.37218"/>
      <line x1="251.94392" x2="241.3838" y1="360.0267" y2="363.53314"/>
      <line x1="248.43748" x2="237.87736" y1="349.46658" y2="352.97302"/>
      <line x1="239.86758" x2="229.3082" y1="323.656" y2="327.16244"/>
      <line x1="236.36188" x2="225.80176" y1="313.09587" y2="316.60231"/>
      <line x1="222.36579" x2="211.24487" y1="288.03969" y2="287.68289"/>
      <line x1="222.72259" x2="211.60167" y1="276.91877" y2="276.56197"/>
      <line x1="223.07939" x2="211.95847" y1="265.79786" y2="265.44106"/>
      <line x1="223.43619" x2="212.31453" y1="254.6762" y2="254.3194"/>
      <line x1="223.79225" x2="212.67133" y1="243.55529" y2="243.19848"/>
      <line x1="224.14905" x2="213.02813" y1="232.43437" y2="232.07757"/>
      <line x1="224.50585" x2="213.38494" y1="221.31271" y2="220.95665"/>
      <line x1="224.86265" x2="213.741" y1="210.1918" y2="209.835"/>
      <line x1="225.21871" x2="214.0978" y1="199.07088" y2="198.71408"/>
      <line x1="225.84998" x2="214.72832" y1="179.40306" y2="179.04626"/>
      <line x1="226.4805" x2="215.35958" y1="159.73524" y2="159.37844"/>
      <line x1="226.8373" x2="215.71564" y1="148.61433" y2="148.25752"/>
      <line x1="227.02126" x2="215.89441" y1="137.13216" y2="137.13216"/>
      <line x1="227.02126" x2="215.89441" y1="126.00531" y2="126.00531"/>
      <line x1="227.02126" x2="215.89441" y1="114.87846" y2="114.87846"/>
      <line x1="227.02126" x2="215.89441" y1="103.75161" y2="103.75161"/>
      <line x1="227.02126" x2="215.89441" y1="92.62476" y2="92.62476"/>
      <line x1="227.02126" x2="215.89441" y1="72.94729" y2="72.94729"/>
      <line x1="227.02126" x2="215.89441" y1="61.82044" y2="61.82044"/>
      <line x1="227.02126" x2="215.89441" y1="50.69359" y2="50.69359"/>
      <line x1="227.02126" x2="215.89441" y1="39.56674" y2="39.56674"/>
      <line x1="227.02126" x2="215.89441" y1="28.43989" y2="28.43989"/>
      <line x1="227.02126" x2="215.89441" y1="17.31304" y2="17.31304"/>
    </g>
    <polyline fill="none" points="211.40881,5.56309 215.89441,17.31304 215.89441,28.43989 215.89441,39.56674 215.89441,50.69359 215.89441,61.82044 215.89441,72.94729 210.15518,82.38806 215.89441,92.62476 215.89441,103.75161 215.89441,114.87846 215.89441,126.00531 215.89441,137.13216 215.71564,148.25752 215.35958,159.37844 209.31993,168.63079 214.72832,179.04626 208.68941,188.29861 214.0978,198.71408 213.741,209.835 213.38494,220.95665 213.02813,232.07757 212.67133,243.19848 212.31453,254.3194 211.95847,265.44106 211.60167,276.56197 211.24487,287.68289 205.47671,297.19857 195.78152,302.65815 186.08706,308.11846 173.93358,307.58734 167.56679,317.95311 173.53672,328.55255 185.70133,328.48134 191.54664,317.81366 201.24183,312.35334 210.93703,306.89302 214.69939,312.65748 220.07811,315.97402 225.80176,316.60231 229.3082,327.16244 224.24029,337.54675 227.94702,348.20628 237.87736,352.97302 241.3838,363.53314 241.19761,370.44885 245.17657,374.37218 249.01979,384.81436 252.86226,395.25653 256.70473,405.69871 260.54794,416.14089 264.39042,426.58307 261.92693,438.49547 271.14367,446.43485 282.55982,442.23335 284.43136,430.21413 274.83259,422.74059 270.99012,412.29842 267.14765,401.85624 263.30444,391.41406 259.46196,380.97188 255.61875,370.52971 251.94392,360.0267 248.43748,349.46658 253.54545,339.70685 250.13989,328.94718 239.86758,323.656 236.36188,313.09587 240.1146,296.42934 222.36579,288.03969 222.72259,276.91877 223.07939,265.79786 223.43619,254.6762 223.79225,243.55529 224.14905,232.43437 224.50585,221.31271 224.86265,210.1918 225.21871,199.07088 231.28359,189.02334 225.84998,179.40306 231.91411,169.35552 226.4805,159.73524 226.8373,148.61433 229.40092,142.1882 227.02126,137.13216 227.02126,126.00531 227.02126,114.87846 227.02126,103.75161 227.02126,92.62476 232.76049,82.38806 227.02126,72.94729 227.02126,61.82044 227.02126,50.69359 227.02126,39.56674 227.02126,28.43989 227.02126,17.31304 231.50612,5.56309" stroke="black" stroke-width="4.5"/>
    <polyline fill="none" points="215.89441,55.61675576822218 215.89441,72.94729 210.15518,82.38806 215.89441,92.62476 215.89441,103.75161 215.89441,114.87846 215.89441,126.00531 215.89441,137.13216 215.71564,148.25752 215.35958,159.37844 209.31993,168.63079 214.72832,179.04626 208.68941,188.29861 214.0978,198.71408 213.741,209.835 213.38494,220.95665 213.02813,232.07757 212.67133,243.19848 212.31453,254.3194 211.95847,265.44106 211.60167,282.7656542317778" stroke="red" stroke-width="9"/>
    <polyline fill="none" points="222.36579,294.2433742317778 222.72259,276.91877 223.07939,265.79786 223.43619,254.6762 223.79225,243.55529 224.14905,232.43437 224.50585,221.31271 224.86265,210.1918 225.21871,199.07088 231.28359,189.02334 225.84998,179.40306 231.91411,169.35552 226.4805,159.73524 226.8373,148.61433 229.40092,142.1882 227.02126,137.13216 227.02126,126.00531 227.02126,114.87846 227.02126,103.75161 227.02126,92.62476 232.76049,82.38806 227.02126,72.94729 227.02126,55.61675576822218" stroke="orange" stroke-width="9"/>
    <g fill="black" font-family="Helvetica" font-size="7.75" font-weight="bold" id="nucleotides" transform="translate(-3.0050815909544664,3.1018421158889087)"> 
      <text x="215.89441" y="61.82044">A</text>
      <text x="215.89441" y="72.94729">G</text>
      <text x="210.15518" y="82.38806">C</text>
      <text x="215.89441" y="92.62476">U</text>
      <text x="215.89441" y="103.75161">C</text>
      <text x="215.89441" y="114.87846">A</text>
      <text x="215.89441" y="126.00531">A</text>
      <text x="215.89441" y="137.13216">A</text>
      <text x="215.71564" y="148.25752">A</text>
      <text x="215.35958" y="159.37844">G</text>
      <text x="209.31993" y="168.63079">C</text>
      <text x="214.72832" y="179.04626">A</text>
      <text x="208.68941" y="188.29861">G</text>
      <text x="214.0978" y="198.71408">U</text>
      <text x="213.741" y="209.835">U</text>
      <text x="213.38494" y="220.95665">U</text>
      <text x="213.02813" y="232.07757">C</text>
      <text x="212.67133" y="243.19848">U</text>
      <text x="212.31453" y="254.3194">U</text>
      <text x="211.95847" y="265.44106">G</text>
      <text x="211.60167" y="276.56197">A</text>
      <text x="222.36579" y="288.03969">G</text>
      <text x="222.72259" y="276.91877">U</text>
      <text x="223.07939" y="265.79786">U</text>
      <text x="223.43619" y="254.6762">G</text>
      <text x="223.79225" y="243.55529">G</text>
      <text x="224.14905" y="232.43437">G</text>
      <text x="224.50585" y="221.31271">A</text>
      <text x="224.86265" y="210.1918">A</text>
      <text x="225.21871" y="199.07088">G</text>
      <text x="231.28359" y="189.02334">G</text>
      <text x="225.84998" y="179.40306">U</text>
      <text x="231.91411" y="169.35552">C</text>
      <text x="226.4805" y="159.73524">C</text>
      <text x="226.8373" y="148.61433">U</text>
      <text x="229.40092" y="142.1882">A</text>
      <text x="227.02126" y="137.13216">U</text>
      <text x="227.02126" y="126.00531">U</text>
      <text x="227.02126" y="114.87846">U</text>
      <text x="227.02126" y="103.75161">G</text>
      <text x="227.02126" y="92.62476">G</text>
      <text x="232.76049" y="82.38806">A</text>
      <text x="227.02126" y="72.94729">C</text>
      <text x="227.02126" y="61.82044">U</text>

    </g>
  </g>
</svg>
