<?xml version="1.0" encoding="utf-8" ?>
<svg baseProfile="full" height="100%" preserveAspectRatio="xMidYMid meet" version="1.1" viewBox="0, 0, 452.0, 452.0" width="100%" xmlns="http://www.w3.org/2000/svg" xmlns:ev="http://www.w3.org/2001/xml-events" xmlns:xlink="http://www.w3.org/1999/xlink">
  <defs/>
  <g id="precursor" transform="translate(0, 10) scale(0.95, 0.95)">
    <g id="pairs" stroke="black" stroke-width="0.8618008506631637">
      <line x1="219.24969" x2="229.12839" y1="15.3705" y2="15.3705"/>
      <line x1="219.24969" x2="229.12839" y1="25.2492" y2="25.2492"/>
      <line x1="219.24969" x2="229.12839" y1="35.1279" y2="35.1279"/>
      <line x1="219.24969" x2="229.12839" y1="45.0066" y2="45.0066"/>
      <line x1="219.24969" x2="229.12839" y1="54.8853" y2="54.8853"/>
      <line x1="219.24969" x2="229.12839" y1="64.764" y2="64.764"/>
      <line x1="219.24969" x2="229.12839" y1="74.6427" y2="74.6427"/>
      <line x1="219.24969" x2="229.12839" y1="84.5214" y2="84.5214"/>
      <line x1="219.24969" x2="229.12839" y1="94.4001" y2="94.4001"/>
      <line x1="219.24969" x2="229.12839" y1="104.2788" y2="104.2788"/>
      <line x1="219.24969" x2="229.12839" y1="114.1575" y2="114.1575"/>
      <line x1="219.24969" x2="229.12839" y1="131.62831" y2="131.62831"/>
      <line x1="219.24969" x2="229.12839" y1="141.50701" y2="141.50701"/>
      <line x1="219.24969" x2="229.12839" y1="151.38571" y2="151.38571"/>
      <line x1="219.24969" x2="229.12839" y1="161.26441" y2="161.26441"/>
      <line x1="219.24969" x2="229.12839" y1="171.14311" y2="171.14311"/>
      <line x1="219.24969" x2="229.12839" y1="181.02181" y2="181.02181"/>
      <line x1="219.24969" x2="229.12839" y1="190.90051" y2="190.90051"/>
      <line x1="219.24969" x2="229.12839" y1="200.77921" y2="200.77921"/>
      <line x1="219.24969" x2="229.12839" y1="210.65791" y2="210.65791"/>
      <line x1="219.24969" x2="229.12839" y1="220.53661" y2="220.53661"/>
      <line x1="219.24969" x2="229.12839" y1="230.41531" y2="230.41531"/>
      <line x1="219.24969" x2="229.12839" y1="240.29401" y2="240.29401"/>
      <line x1="219.24969" x2="229.12839" y1="256.36797" y2="256.36797"/>
      <line x1="219.24969" x2="229.12839" y1="266.24667" y2="266.24667"/>
      <line x1="219.24969" x2="229.12839" y1="276.12537" y2="276.12537"/>
      <line x1="219.24969" x2="229.12839" y1="286.00407" y2="286.00407"/>
      <line x1="219.40512" x2="229.27921" y1="296.18243" y2="295.88145"/>
      <line x1="219.70609" x2="229.58018" y1="306.05652" y2="305.75554"/>
      <line x1="220.00772" x2="229.88181" y1="315.93061" y2="315.62963"/>
      <line x1="220.30869" x2="230.18278" y1="325.8047" y2="325.50372"/>
      <line x1="220.60966" x2="230.48441" y1="335.67944" y2="335.37781"/>
      <line x1="220.91129" x2="230.78538" y1="345.55353" y2="345.2519"/>
      <line x1="221.0621" x2="230.9408" y1="355.43092" y2="355.43092"/>
      <line x1="221.0621" x2="230.9408" y1="365.30962" y2="365.30962"/>
      <line x1="230.9408" x2="221.0621" y1="365.30962" y2="365.30962"/>
      <line x1="230.9408" x2="221.0621" y1="355.43092" y2="355.43092"/>
      <line x1="230.78538" x2="220.91129" y1="345.2519" y2="345.55353"/>
      <line x1="230.48441" x2="220.60966" y1="335.37781" y2="335.67944"/>
      <line x1="230.18278" x2="220.30869" y1="325.50372" y2="325.8047"/>
      <line x1="229.88181" x2="220.00772" y1="315.62963" y2="315.93061"/>
      <line x1="229.58018" x2="219.70609" y1="305.75554" y2="306.05652"/>
      <line x1="229.27921" x2="219.40512" y1="295.88145" y2="296.18243"/>
      <line x1="229.12839" x2="219.24969" y1="286.00407" y2="286.00407"/>
      <line x1="229.12839" x2="219.24969" y1="276.12537" y2="276.12537"/>
      <line x1="229.12839" x2="219.24969" y1="266.24667" y2="266.24667"/>
      <line x1="229.12839" x2="219.24969" y1="256.36797" y2="256.36797"/>
      <line x1="229.12839" x2="219.24969" y1="240.29401" y2="240.29401"/>
      <line x1="229.12839" x2="219.24969" y1="230.41531" y2="230.41531"/>
      <line x1="229.12839" x2="219.24969" y1="220.53661" y2="220.53661"/>
      <line x1="229.12839" x2="219.24969" y1="210.65791" y2="210.65791"/>
      <line x1="229.12839" x2="219.24969" y1="200.77921" y2="200.77921"/>
      <line x1="229.12839" x2="219.24969" y1="190.90051" y2="190.90051"/>
      <line x1="229.12839" x2="219.24969" y1="181.02181" y2="181.02181"/>
      <line x1="229.12839" x2="219.24969" y1="171.14311" y2="171.14311"/>
      <line x1="229.12839" x2="219.24969" y1="161.26441" y2="161.26441"/>
      <line x1="229.12839" x2="219.24969" y1="151.38571" y2="151.38571"/>
      <line x1="229.12839" x2="219.24969" y1="141.50701" y2="141.50701"/>
      <line x1="229.12839" x2="219.24969" y1="131.62831" y2="131.62831"/>
      <line x1="229.12839" x2="219.24969" y1="114.1575" y2="114.1575"/>
      <line x1="229.12839" x2="219.24969" y1="104.2788" y2="104.2788"/>
      <line x1="229.12839" x2="219.24969" y1="94.4001" y2="94.4001"/>
      <line x1="229.12839" x2="219.24969" y1="84.5214" y2="84.5214"/>
      <line x1="229.12839" x2="219.24969" y1="74.6427" y2="74.6427"/>
      <line x1="229.12839" x2="219.24969" y1="64.764" y2="64.764"/>
      <line x1="229.12839" x2="219.24969" y1="54.8853" y2="54.8853"/>
      <line x1="229.12839" x2="219.24969" y1="45.0066" y2="45.0066"/>
      <line x1="229.12839" x2="219.24969" y1="35.1279" y2="35.1279"/>
      <line x1="229.12839" x2="219.24969" y1="25.2492" y2="25.2492"/>
      <line x1="229.12839" x2="219.24969" y1="15.3705" y2="15.3705"/>
    </g>
    <polyline fill="none" points="215.26792,-0.23155510397898205 219.24969,15.3705 219.24969,25.2492 219.24969,35.1279 219.24969,45.0066 219.24969,54.8853 219.24969,64.764 219.24969,74.6427 219.24969,84.5214 219.24969,94.4001 219.24969,104.2788 219.24969,114.1575 214.15426,122.53991 219.24969,131.62831 219.24969,141.50701 219.24969,151.38571 219.24969,161.26441 219.24969,171.14311 219.24969,181.02181 219.24969,190.90051 219.24969,200.77921 219.24969,210.65791 219.24969,220.53661 219.24969,230.41531 219.24969,240.29401 214.75554,248.33066 219.24969,256.36797 219.24969,266.24667 219.24969,276.12537 219.24969,286.00407 217.16068,291.76796 219.40512,296.18243 219.70609,306.05652 220.00772,315.93061 220.30869,325.8047 220.60966,335.67944 220.91129,345.55353 221.0621,355.43092 221.0621,365.30962 211.42049,367.67985 202.62713,372.28925 195.19308,378.86978 189.54971,387.03815 186.02565,396.32017 184.82572,406.17516 186.01972,416.03147 189.53786,425.31548 195.17662,433.48714 202.60672,440.07228 211.39744,444.68695 221.03708,447.0631 230.96517,447.0631 240.60481,444.68695 249.39553,440.07228 256.82629,433.48714 262.46439,425.31548 265.98319,416.03147 267.17719,406.17516 265.97726,396.32017 262.4532,387.03815 256.80983,378.86978 249.37512,372.28925 240.58176,367.67985 230.9408,365.30962 230.9408,355.43092 233.04958,350.94994 230.78538,345.2519 230.48441,335.37781 230.18278,325.50372 229.88181,315.62963 229.58018,305.75554 229.27921,295.88145 229.12839,286.00407 229.12839,276.12537 229.12839,266.24667 229.12839,256.36797 233.62254,248.33066 229.12839,240.29401 229.12839,230.41531 229.12839,220.53661 229.12839,210.65791 229.12839,200.77921 229.12839,190.90051 229.12839,181.02181 229.12839,171.14311 229.12839,161.26441 229.12839,151.38571 229.12839,141.50701 229.12839,131.62831 234.22383,122.53991 229.12839,114.1575 229.12839,104.2788 229.12839,94.4001 229.12839,84.5214 229.12839,74.6427 229.12839,64.764 229.12839,54.8853 229.12839,45.0066 229.12839,35.1279 229.12839,25.2492 229.12839,15.3705 233.11017,4.93925" stroke="#9494b8" stroke-width="7.433032336969786"/>
    <polyline fill="none" points="219.24969,136.33620489602103 219.24969,151.38571 219.24969,161.26441 219.24969,171.14311 219.24969,181.02181 219.24969,190.90051 219.24969,200.77921 219.24969,210.65791 219.24969,220.53661 219.24969,230.41531 219.24969,240.29401 214.75554,248.33066 219.24969,256.36797 219.24969,266.24667 219.24969,276.12537 219.24969,286.00407 217.16068,291.76796 219.40512,296.18243 219.70609,306.05652 220.00772,315.93061 220.30869,325.8047 220.60966,340.850245103979" stroke="#ff0000" stroke-width="7.433032336969786"/>
    <polyline fill="none" points="229.88181,320.800435103979 229.58018,305.75554 229.27921,295.88145 229.12839,286.00407 229.12839,276.12537 229.12839,266.24667 229.12839,256.36797 233.62254,248.33066 229.12839,240.29401 229.12839,230.41531 229.12839,220.53661 229.12839,210.65791 229.12839,200.77921 229.12839,190.90051 229.12839,181.02181 229.12839,171.14311 229.12839,161.26441 229.12839,151.38571 229.12839,141.50701 229.12839,131.62831 234.22383,122.53991 229.12839,108.98669489602102" stroke="#ff9933" stroke-width="7.433032336969786"/>
    <g fill="black" font-family="Helvetica" font-size="6.463506379973728" font-weight="bold" id="nucleotides" transform="translate(0, 2.229909701090936)">
      <text text-anchor="middle" x="215.26792" y="4.93925">A</text>
      <text text-anchor="middle" x="219.24969" y="15.3705">A</text>
      <text text-anchor="middle" x="219.24969" y="25.2492">C</text>
      <text text-anchor="middle" x="219.24969" y="35.1279">U</text>
      <text text-anchor="middle" x="219.24969" y="45.0066">A</text>
      <text text-anchor="middle" x="219.24969" y="54.8853">G</text>
      <text text-anchor="middle" x="219.24969" y="64.764">A</text>
      <text text-anchor="middle" x="219.24969" y="74.6427">G</text>
      <text text-anchor="middle" x="219.24969" y="84.5214">G</text>
      <text text-anchor="middle" x="219.24969" y="94.4001">A</text>
      <text text-anchor="middle" x="219.24969" y="104.2788">G</text>
      <text text-anchor="middle" x="219.24969" y="114.1575">G</text>
      <text text-anchor="middle" x="214.15426" y="122.53991">C</text>
      <text text-anchor="middle" x="219.24969" y="131.62831">A</text>
      <text text-anchor="middle" x="219.24969" y="141.50701">U</text>
      <text text-anchor="middle" x="219.24969" y="151.38571">C</text>
      <text text-anchor="middle" x="219.24969" y="161.26441">C</text>
      <text text-anchor="middle" x="219.24969" y="171.14311">A</text>
      <text text-anchor="middle" x="219.24969" y="181.02181">A</text>
      <text text-anchor="middle" x="219.24969" y="190.90051">A</text>
      <text text-anchor="middle" x="219.24969" y="200.77921">G</text>
      <text text-anchor="middle" x="219.24969" y="210.65791">G</text>
      <text text-anchor="middle" x="219.24969" y="220.53661">G</text>
      <text text-anchor="middle" x="219.24969" y="230.41531">A</text>
      <text text-anchor="middle" x="219.24969" y="240.29401">U</text>
      <text text-anchor="middle" x="214.75554" y="248.33066">C</text>
      <text text-anchor="middle" x="219.24969" y="256.36797">G</text>
      <text text-anchor="middle" x="219.24969" y="266.24667">C</text>
      <text text-anchor="middle" x="219.24969" y="276.12537">A</text>
      <text text-anchor="middle" x="219.24969" y="286.00407">U</text>
      <text text-anchor="middle" x="217.16068" y="291.76796">U</text>
      <text text-anchor="middle" x="219.40512" y="296.18243">G</text>
      <text text-anchor="middle" x="219.70609" y="306.05652">A</text>
      <text text-anchor="middle" x="220.00772" y="315.93061">U</text>
      <text text-anchor="middle" x="220.30869" y="325.8047">C</text>
      <text text-anchor="middle" x="220.60966" y="335.67944">C</text>
      <text text-anchor="middle" x="220.91129" y="345.55353">A</text>
      <text text-anchor="middle" x="221.0621" y="355.43092">G</text>
      <text text-anchor="middle" x="221.0621" y="365.30962">A</text>
      <text text-anchor="middle" x="211.42049" y="367.67985">U</text>
      <text text-anchor="middle" x="202.62713" y="372.28925">A</text>
      <text text-anchor="middle" x="195.19308" y="378.86978">C</text>
      <text text-anchor="middle" x="189.54971" y="387.03815">A</text>
      <text text-anchor="middle" x="186.02565" y="396.32017">C</text>
      <text text-anchor="middle" x="184.82572" y="406.17516">A</text>
      <text text-anchor="middle" x="186.01972" y="416.03147">U</text>
      <text text-anchor="middle" x="189.53786" y="425.31548">U</text>
      <text text-anchor="middle" x="195.17662" y="433.48714">U</text>
      <text text-anchor="middle" x="202.60672" y="440.07228">A</text>
      <text text-anchor="middle" x="211.39744" y="444.68695">U</text>
      <text text-anchor="middle" x="221.03708" y="447.0631">U</text>
      <text text-anchor="middle" x="230.96517" y="447.0631">U</text>
      <text text-anchor="middle" x="240.60481" y="444.68695">C</text>
      <text text-anchor="middle" x="249.39553" y="440.07228">A</text>
      <text text-anchor="middle" x="256.82629" y="433.48714">U</text>
      <text text-anchor="middle" x="262.46439" y="425.31548">A</text>
      <text text-anchor="middle" x="265.98319" y="416.03147">U</text>
      <text text-anchor="middle" x="267.17719" y="406.17516">A</text>
      <text text-anchor="middle" x="265.97726" y="396.32017">U</text>
      <text text-anchor="middle" x="262.4532" y="387.03815">A</text>
      <text text-anchor="middle" x="256.80983" y="378.86978">A</text>
      <text text-anchor="middle" x="249.37512" y="372.28925">U</text>
      <text text-anchor="middle" x="240.58176" y="367.67985">U</text>
      <text text-anchor="middle" x="230.9408" y="365.30962">U</text>
      <text text-anchor="middle" x="230.9408" y="355.43092">C</text>
      <text text-anchor="middle" x="233.04958" y="350.94994">U</text>
      <text text-anchor="middle" x="230.78538" y="345.2519">U</text>
      <text text-anchor="middle" x="230.48441" y="335.37781">G</text>
      <text text-anchor="middle" x="230.18278" y="325.50372">G</text>
      <text text-anchor="middle" x="229.88181" y="315.62963">A</text>
      <text text-anchor="middle" x="229.58018" y="305.75554">U</text>
      <text text-anchor="middle" x="229.27921" y="295.88145">C</text>
      <text text-anchor="middle" x="229.12839" y="286.00407">A</text>
      <text text-anchor="middle" x="229.12839" y="276.12537">U</text>
      <text text-anchor="middle" x="229.12839" y="266.24667">G</text>
      <text text-anchor="middle" x="229.12839" y="256.36797">C</text>
      <text text-anchor="middle" x="233.62254" y="248.33066">U</text>
      <text text-anchor="middle" x="229.12839" y="240.29401">A</text>
      <text text-anchor="middle" x="229.12839" y="230.41531">U</text>
      <text text-anchor="middle" x="229.12839" y="220.53661">C</text>
      <text text-anchor="middle" x="229.12839" y="210.65791">C</text>
      <text text-anchor="middle" x="229.12839" y="200.77921">C</text>
      <text text-anchor="middle" x="229.12839" y="190.90051">U</text>
      <text text-anchor="middle" x="229.12839" y="181.02181">U</text>
      <text text-anchor="middle" x="229.12839" y="171.14311">U</text>
      <text text-anchor="middle" x="229.12839" y="161.26441">G</text>
      <text text-anchor="middle" x="229.12839" y="151.38571">G</text>
      <text text-anchor="middle" x="229.12839" y="141.50701">A</text>
      <text text-anchor="middle" x="229.12839" y="131.62831">U</text>
      <text text-anchor="middle" x="234.22383" y="122.53991">U</text>
      <text text-anchor="middle" x="229.12839" y="114.1575">U</text>
      <text text-anchor="middle" x="229.12839" y="104.2788">C</text>
      <text text-anchor="middle" x="229.12839" y="94.4001">U</text>
      <text text-anchor="middle" x="229.12839" y="84.5214">C</text>
      <text text-anchor="middle" x="229.12839" y="74.6427">C</text>
      <text text-anchor="middle" x="229.12839" y="64.764">U</text>
      <text text-anchor="middle" x="229.12839" y="54.8853">U</text>
      <text text-anchor="middle" x="229.12839" y="45.0066">U</text>
      <text text-anchor="middle" x="229.12839" y="35.1279">A</text>
      <text text-anchor="middle" x="229.12839" y="25.2492">G</text>
      <text text-anchor="middle" x="229.12839" y="15.3705">U</text>
      <text text-anchor="middle" x="233.11017" y="4.93925">A</text>
    </g>
  </g>
</svg>
